<?xml version="1.0" standalone="no"?>
<!DOCTYPE svg PUBLIC "-//W3C//DTD SVG 20010904//EN"
 "http://www.w3.org/TR/2001/REC-SVG-20010904/DTD/svg10.dtd">
<svg version="1.0" xmlns="http://www.w3.org/2000/svg"
 width="407.000000pt" height="407.000000pt" viewBox="0 0 407.000000 407.000000"
 preserveAspectRatio="xMidYMid meet">
<metadata>
Created by potrace 1.14, written by Peter Selinger 2001-2017
</metadata>
<g transform="translate(0.000000,407.000000) scale(0.100000,-0.100000)"
fill="#000000" stroke="none">
<path d="M3505 3997 c-16 -18 -48 -46 -70 -62 -22 -16 -56 -45 -76 -64 -19
-20 -61 -49 -93 -65 l-58 -28 -316 1 c-175 2 -337 4 -362 7 -25 2 -85 6 -135
9 -81 4 -130 9 -275 31 -65 10 -400 11 -406 2 -3 -4 -15 -8 -26 -8 -66 0 -501
-114 -596 -156 -53 -23 -90 -26 -77 -5 3 6 -6 7 -23 1 -25 -7 -42 0 -118 47
-49 31 -119 84 -157 119 -37 35 -71 64 -76 64 -5 0 -14 13 -21 29 -10 25 -18
30 -54 33 -67 5 -74 1 -73 -38 1 -23 4 -31 11 -24 54 54 2 -147 -56 -217 -6
-7 -8 -13 -4 -13 8 0 -36 -114 -73 -185 -29 -58 -57 -147 -66 -210 -2 -16 -7
-48 -11 -70 -4 -22 -8 -51 -9 -65 -5 -68 -35 -184 -81 -310 -13 -36 -26 -87
-29 -115 -3 -27 -10 -54 -14 -60 -13 -16 -50 -122 -45 -127 2 -3 -2 -20 -9
-39 -8 -19 -15 -56 -16 -84 -2 -27 -12 -68 -23 -90 -65 -132 -52 -684 21 -880
10 -27 24 -65 31 -83 16 -41 84 -129 127 -166 18 -15 35 -35 38 -46 3 -10 14
-22 25 -25 10 -3 34 -22 53 -43 19 -20 59 -63 89 -96 31 -32 65 -78 77 -101
12 -24 28 -48 36 -55 8 -7 15 -20 15 -29 1 -26 113 -201 130 -201 9 0 82 -64
162 -142 27 -26 63 -59 81 -72 30 -24 30 -25 7 -20 -22 5 -22 4 7 -15 34 -21
138 -52 147 -43 3 2 12 0 19 -6 8 -7 16 -10 19 -7 3 3 24 -2 48 -10 24 -8 45
-13 48 -11 2 3 19 -1 36 -8 17 -7 36 -11 43 -9 6 2 31 -1 55 -8 24 -7 59 -14
78 -15 43 -4 62 -8 75 -16 6 -3 39 -9 75 -13 36 -4 69 -9 74 -12 4 -3 29 -7
55 -8 26 -1 72 -6 102 -10 127 -18 506 -1 568 26 13 5 43 12 65 15 59 8 79 11
96 18 8 3 35 7 59 10 23 2 68 14 100 26 31 12 69 27 85 33 43 16 153 92 194
135 20 20 60 55 87 77 28 22 52 42 55 45 3 3 22 16 42 30 21 14 38 28 38 33 0
4 6 7 13 7 6 0 26 13 43 30 41 37 153 110 171 110 26 0 189 173 222 235 17 33
36 67 41 75 18 28 114 235 112 242 -1 4 4 27 12 50 15 45 28 102 31 130 1 9 6
22 12 30 17 20 81 160 89 194 4 16 11 35 17 42 5 6 7 12 3 12 -3 0 1 17 8 38
20 50 25 107 32 309 5 153 3 176 -14 215 -43 100 -67 169 -94 273 -11 44 -25
88 -30 98 -5 10 -11 37 -13 60 -2 23 -6 58 -9 77 -3 19 -8 53 -11 75 -14 101
-18 115 -34 120 -11 3 -23 28 -34 69 -21 79 -21 76 3 76 20 0 20 1 5 30 -9 17
-13 30 -11 30 3 0 0 15 -5 33 -6 17 -12 46 -15 62 -4 25 -11 57 -19 85 -1 3
-5 24 -9 48 -6 35 -12 42 -31 42 -19 0 -25 9 -39 65 -20 78 -20 85 -2 85 12 0
12 8 -1 53 -8 28 -21 77 -30 107 -8 30 -21 67 -29 82 -8 15 -14 31 -13 35 0 4
-6 10 -15 13 -11 3 -13 9 -6 20 8 13 10 13 10 1 0 -11 3 -10 13 3 12 16 10 22
-10 42 -32 32 -52 30 -88 -9z m-455 -240 c0 -18 -27 -55 -49 -66 -13 -8 -38
-2 -92 20 -41 17 -99 36 -129 44 -53 13 -50 13 108 14 125 1 162 -2 162 -12z
m-2010 -3433 l25 -15 -25 7 c-14 3 -32 10 -40 15 -13 7 -13 8 0 8 8 0 26 -6
40 -15z"/>
<path d="M1104 3698 l-19 -23 23 19 c21 18 27 26 19 26 -2 0 -12 -10 -23 -22z"/>
<path d="M3559 216 c-2 -2 -30 -7 -61 -10 -65 -8 -189 -48 -227 -73 -50 -34
-139 -71 -206 -86 -11 -3 68 -5 175 -6 l195 -1 53 35 c56 38 78 65 92 114 6
23 5 31 -4 31 -7 0 -15 -2 -17 -4z"/>
</g>
</svg>
